<?xml version="1.0" encoding="utf-8"?>
<!-- Generator: Adobe Illustrator 24.0.2, SVG Export Plug-In . SVG Version: 6.00 Build 0)  -->
<svg version="1.1" id="Capa_1" xmlns="http://www.w3.org/2000/svg" xmlns:xlink="http://www.w3.org/1999/xlink" x="0px" y="0px"
	 viewBox="0 0 24 24" style="enable-background:new 0 0 24 24;" xml:space="preserve">
<style type="text/css">
	.st0{display:none;}
	.st1{display:inline;fill:#9A7D22;}
	.st2{fill:#FFFFFF;}
	.st3{fill:#3570D8;}
</style>
<g id="Capa_1_1_" class="st0">
	<circle class="st1" cx="12" cy="10.4" r="10"/>
</g>
<g>
	<g>
		<circle class="st2" cx="12" cy="10.3" r="8.8"/>
		<path class="st2" d="M12,19.6c-5.1,0-9.3-4.2-9.3-9.3S6.9,1,12,1s9.3,4.2,9.3,9.3S17.1,19.6,12,19.6z M12,2
			c-4.6,0-8.3,3.7-8.3,8.3c0,4.6,3.7,8.3,8.3,8.3c4.6,0,8.3-3.7,8.3-8.3C20.3,5.7,16.6,2,12,2z"/>
	</g>
	<g id="Capa_3">
		<g>
			<path class="st3" d="M12.1,23.7c0.4-0.1,0.7-0.2,1-0.4c0,0,2.7-2.7,5.6-5.5c2.2-2.2,3.5-4.4,3.5-7.5c0-5.5-4.5-10-10.1-10
				c0,0-0.1,0-0.1,0l0,0C6.5,0.2,1.9,4.6,1.8,10.1c0,0,0,0.1,0,0.1c0,3.1,1.3,5.4,3.5,7.6c2.9,2.9,5.7,5.5,5.7,5.5
				C11.3,23.6,11.7,23.8,12.1,23.7 M12,18.8c-4.8,0-8.8-3.9-8.8-8.8c0-4.8,3.9-8.8,8.8-8.8c4.8,0,8.8,3.9,8.8,8.8c0,0,0,0,0,0
				C20.7,14.9,16.8,18.8,12,18.8L12,18.8z"/>
		</g>
	</g>
	<g>
		<polygon class="st3" points="6.9,6.8 12,2.8 17.1,6.8 		"/>
		<path class="st3" d="M17.1,6.9H6.9c-0.1,0-0.1,0-0.1-0.1c0,0,0-0.1,0-0.1l5.1-4.1c0,0,0.1,0,0.2,0l5.1,4.1c0,0,0.1,0.1,0,0.1
			C17.2,6.9,17.1,6.9,17.1,6.9z M7.3,6.7h9.5L12,2.9L7.3,6.7z"/>
	</g>
	<g>
		<rect x="6.9" y="7.3" class="st3" width="10.2" height="6.6"/>
		<path class="st3" d="M17.1,14H6.9c-0.1,0-0.1-0.1-0.1-0.1V7.3c0-0.1,0.1-0.1,0.1-0.1h10.2c0.1,0,0.1,0.1,0.1,0.1v6.6
			C17.2,14,17.2,14,17.1,14z M7,13.8H17V7.4H7V13.8z"/>
	</g>
	<g>
		<path class="st3" d="M18.4,14.8H5.6c-0.1,0-0.2-0.1-0.2-0.2c0-0.1,0.1-0.2,0.2-0.2h12.7c0.1,0,0.2,0.1,0.2,0.2
			C18.6,14.7,18.5,14.8,18.4,14.8z"/>
	</g>
	<g>
		<path class="st2" d="M15.9,7.4c-0.5,0-0.8,0.3-0.8,0.6v5.7h1.7V8.1C16.7,7.7,16.4,7.4,15.9,7.4z"/>
	</g>
	<g>
		<path class="st2" d="M12,7.4c-0.5,0-0.8,0.3-0.8,0.6v5.7h1.7V8.1C12.8,7.7,12.5,7.4,12,7.4z"/>
	</g>
	<g>
		<path class="st2" d="M8.1,7.4c-0.5,0-0.8,0.3-0.8,0.6v5.7h1.7V8.1C8.9,7.7,8.5,7.4,8.1,7.4z"/>
	</g>
	<g>
		<g>
			<path class="st2" d="M14.2,14.3c0.1,0.1,0.3,0,0.5-0.1l0.3-0.4l-0.6-0.6L14,13.6c-0.1,0.1-0.2,0.3-0.1,0.5l0,0
				c-0.3,0.2-0.6,0.2-0.9,0c0,0-0.8,0.4-0.7,1.2c0,0.4-0.1,0.7-0.3,1l0.9-1c-0.1-0.1-0.1-0.3,0-0.3c0,0,0,0,0,0
				c0.1-0.1,0.3-0.1,0.4,0.1c0.1,0.1,0.1,0.2,0,0.3c-0.1,0.1-0.2,0.1-0.4,0.1l-0.9,1c0.3-0.2,0.6-0.3,1-0.4c0.8,0,1.1-0.8,1.1-0.8
				C14,14.9,13.9,14.5,14.2,14.3L14.2,14.3z"/>
			<path class="st3" d="M12.1,16.4L12.1,16.4l0.9-1.1l0,0c0.1,0.1,0.2,0,0.3,0c0-0.1,0-0.2,0-0.3c0-0.1-0.1-0.1-0.2-0.1
				c-0.1,0-0.1,0-0.2,0c0,0,0,0,0,0c-0.1,0.1-0.1,0.2,0,0.3l0,0l0,0L12.1,16.4L12,16.2c0.2-0.3,0.3-0.6,0.3-1C12.2,14.4,13,14,13,14
				l0,0l0,0c0.2,0.2,0.5,0.2,0.8,0.1c-0.1-0.1-0.1-0.3,0.1-0.5l0.4-0.4l0,0l0.7,0.6l-0.4,0.4c-0.1,0.2-0.4,0.2-0.5,0.1
				c-0.1,0.2-0.1,0.6,0.1,0.8l0,0l0,0c0,0-0.3,0.8-1.1,0.8c0,0,0,0-0.1,0C12.7,16,12.4,16.2,12.1,16.4z M13,15.4l-0.7,0.7
				c0.2-0.1,0.5-0.2,0.7-0.2c0,0,0,0,0,0c0.6,0,1-0.6,1-0.7c-0.2-0.3-0.2-0.6-0.1-0.9l0,0l0.1,0.1c0.1,0.1,0.3,0,0.4-0.1l0.3-0.3
				l-0.6-0.5L14,13.6c-0.1,0.1-0.2,0.3-0.1,0.4l0.1,0.1l0,0c-0.3,0.2-0.7,0.2-0.9,0c-0.1,0.1-0.7,0.4-0.7,1.1c0,0.2,0,0.5-0.1,0.7
				l0.6-0.6c-0.1-0.1-0.1-0.3,0-0.4l0,0l0,0c0.1-0.1,0.2-0.1,0.3-0.1c0.1,0,0.2,0.1,0.2,0.2c0.1,0.1,0.1,0.3,0,0.4
				C13.3,15.4,13.2,15.5,13,15.4z"/>
		</g>
		<g>
			<path class="st2" d="M19.8,8c-0.2-0.2-1.7,1-3.3,2.7c-0.5,0.5-1.3,1.4-2,2.2l0.8,0.7c0.7-0.7,1.6-1.6,2.1-2.1
				C18.9,9.8,20,8.3,19.8,8z"/>
			<path class="st3" d="M15.2,13.7L14.4,13l0,0c0.7-0.8,1.6-1.8,2-2.2C17.9,9.1,19.3,8,19.7,8c0,0,0,0,0,0c0,0,0.1,0,0.1,0v0
				c0.3,0.3-1.1,2-2.5,3.5C16.9,12,16,13,15.2,13.7L15.2,13.7z M14.5,13l0.7,0.6c0.7-0.7,1.6-1.6,2.1-2.1c1.9-2,2.6-3.3,2.5-3.4l0,0
				c0,0,0,0,0,0c0,0,0,0,0,0c-0.3,0-1.6,1-3.2,2.7C16.1,11.2,15.2,12.2,14.5,13z"/>
		</g>
	</g>
</g>
</svg>
